<svg width="325" height="331" viewBox="0 0 325 331" fill="none" xmlns="http://www.w3.org/2000/svg">
<g clip-path="url(#clip0)">
<path d="M116.976 46.0316L157.187 92.2788L189.167 41.8037L197.755 101.299L253.186 76.2525L227.361 130.096L288.62 138.464L236.763 169.516L284.389 208.612L222.723 207.05L241.618 264.463L189.877 230.781L173.939 288.214L148.506 233.068L102.936 272.476L111.881 213.346L51.1525 222.015L91.6701 177.791L34.8853 153.047L94.123 137.971L59.4594 87.6541L118.556 105.872L116.976 46.0316Z" fill="#252D5A" stroke="#E2281A" stroke-width="5" stroke-miterlimit="10"/>
<path d="M204.382 184.564C202.984 169.822 192.39 159.146 180.718 160.709C169.047 162.272 160.684 175.428 162.09 190.134C163.496 204.84 174.082 215.552 185.782 214.034C197.481 212.516 205.779 199.306 204.382 184.564Z" fill="#E73925"/>
<path d="M193.521 107.214C198.302 106.048 203.402 107.142 207.304 110.176C215.253 116.775 216.179 129.412 216.315 131.131C217.156 145.434 209.702 160.492 203.114 160.923C198.857 161.025 198.424 155.48 192.101 153.98C185.777 152.481 182.673 157.379 179.07 154.723C175.467 152.067 175.21 143.651 175.099 137.569C174.305 129.945 175.883 122.309 179.637 115.649C181.24 113.308 183.344 111.316 185.794 109.827C188.153 108.394 190.777 107.483 193.521 107.214Z" fill="#E73925"/>
<path d="M165.176 181.706C148.277 169.611 132.33 156.287 117.474 141.802C134.786 134.141 153.555 130.16 172.558 130.106" stroke="#71A845" stroke-miterlimit="10"/>
<path d="M109.735 189.178C109.735 189.178 100.256 175.433 101.404 164.207C102.551 152.981 116.345 143.451 116.345 143.451C116.345 143.451 125.462 158.721 123.938 171.697C123.303 175.685 121.647 179.394 119.113 182.549C116.677 185.612 113.443 187.95 109.737 189.332L109.735 189.178Z" fill="#71A845"/>
</g>
<defs>
<clipPath id="clip0">
<rect y="269.205" width="276.671" height="267.569" transform="rotate(-76.6595 0 269.205)" fill="white"/>
</clipPath>
</defs>
</svg>
