<svg width="282" height="273" viewBox="0 0 282 273" fill="none" xmlns="http://www.w3.org/2000/svg">
<g clip-path="url(#clip0)">
<path d="M245.713 63.2836L210.815 113.661L267.619 132.201L212.081 155.2L250.028 202.74L191.477 190.995L198.48 252.425L155.595 209.831L129.456 265.63L115.757 205.484L64.78 237.958L84.6576 179.508L25.0672 178.23L72.2348 139.98L22.8037 105.539L82.3124 99.6207L58.9302 42.9079L111.783 71.2636L121.754 10.1296L150.978 63.8174L191.188 17.8126L188.112 79.5772L245.713 63.2836Z" fill="#FAFF09" stroke="#E2281A" stroke-width="5" stroke-miterlimit="10"/>
<path d="M133.024 182.163C146.965 177.172 154.698 164.271 150.304 153.346C145.91 142.42 131.097 137.562 117.193 142.552C103.288 147.542 95.5187 160.444 99.8761 171.407C104.233 182.371 119.082 187.153 133.024 182.163Z" fill="#E73925"/>
<path d="M205.304 152.556C207.613 156.902 207.811 162.114 205.834 166.644C201.4 175.975 189.381 179.99 187.749 180.546C174.095 184.889 157.664 181.38 155.622 175.102C154.473 171.002 159.739 169.215 159.633 162.716C159.526 156.218 154.014 154.419 155.699 150.272C157.383 146.125 165.476 143.8 171.343 142.192C178.535 139.542 186.324 139.187 193.704 141.182C196.368 142.159 198.818 143.706 200.865 145.713C202.836 147.646 204.366 149.964 205.304 152.556Z" fill="#E73925"/>
<path d="M126.122 143.464C133.674 124.103 142.653 105.362 153.025 87.3918C164.72 102.279 173.208 119.486 177.948 137.888" stroke="#71A845" stroke-miterlimit="10"/>
<path d="M105.204 91.5789C105.204 91.5789 116.186 79.0027 127.348 77.3454C138.51 75.6882 151.149 86.7048 151.149 86.7048C151.149 86.7048 138.6 99.3067 125.649 101.031C121.627 101.4 117.625 100.709 113.942 99.0315C110.372 97.4273 107.309 94.87 105.055 91.6191L105.204 91.5789Z" fill="#71A845"/>
</g>
<defs>
<clipPath id="clip0">
<rect x="0.57959" y="4.97748" width="276.671" height="267.569" transform="rotate(-0.941166 0.57959 4.97748)" fill="white"/>
</clipPath>
</defs>
</svg>
